<?xml version="1.0" encoding="UTF-8" standalone="no"?>
<!DOCTYPE svg PUBLIC "-//W3C//DTD SVG 1.1//EN"
 "http://www.w3.org/Graphics/SVG/1.1/DTD/svg11.dtd">
<!-- Generated by graphviz version 2.43.0 (0)
 -->
<!-- Title: G Pages: 1 -->
<svg width="473pt" height="405pt"
 viewBox="0.00 0.00 473.13 404.87" xmlns="http://www.w3.org/2000/svg" xmlns:xlink="http://www.w3.org/1999/xlink">
<g id="graph0" class="graph" transform="scale(1 1) rotate(0) translate(4 400.87)">
<title>G</title>
<polygon fill="white" stroke="transparent" points="-4,4 -4,-400.87 469.13,-400.87 469.13,4 -4,4"/>
<!-- system.ruby.network_gpu.routers00 -->
<g id="node1" class="node">
<title>system.ruby.network_gpu.routers00</title>
<path fill="#cce6fc" stroke="#000000" d="M140.63,-175.3C140.63,-175.3 170.63,-175.3 170.63,-175.3 176.63,-175.3 182.63,-181.3 182.63,-187.3 182.63,-187.3 182.63,-199.3 182.63,-199.3 182.63,-205.3 176.63,-211.3 170.63,-211.3 170.63,-211.3 140.63,-211.3 140.63,-211.3 134.63,-211.3 128.63,-205.3 128.63,-199.3 128.63,-199.3 128.63,-187.3 128.63,-187.3 128.63,-181.3 134.63,-175.3 140.63,-175.3"/>
<text text-anchor="middle" x="155.63" y="-189.6" font-family="Arial" font-size="14.00" fill="#000000">R 0</text>
</g>
<!-- system.ruby.network_gpu.routers17 -->
<g id="node18" class="node">
<title>system.ruby.network_gpu.routers17</title>
<path fill="#cce6fc" stroke="#000000" d="M217.87,-180.67C217.87,-180.67 247.87,-180.67 247.87,-180.67 253.87,-180.67 259.87,-186.67 259.87,-192.67 259.87,-192.67 259.87,-204.67 259.87,-204.67 259.87,-210.67 253.87,-216.67 247.87,-216.67 247.87,-216.67 217.87,-216.67 217.87,-216.67 211.87,-216.67 205.87,-210.67 205.87,-204.67 205.87,-204.67 205.87,-192.67 205.87,-192.67 205.87,-186.67 211.87,-180.67 217.87,-180.67"/>
<text text-anchor="middle" x="232.87" y="-194.97" font-family="Arial" font-size="14.00" fill="#000000">R 17</text>
</g>
<!-- system.ruby.network_gpu.routers00&#45;&#45;system.ruby.network_gpu.routers17 -->
<g id="edge1" class="edge">
<title>system.ruby.network_gpu.routers00&#45;&#45;system.ruby.network_gpu.routers17</title>
<path fill="none" stroke="#042d50" d="M183.06,-201.74C187.07,-202.2 191.25,-202.57 195.41,-202.83"/>
<polygon fill="#042d50" stroke="#042d50" points="195.47,-206.33 205.61,-203.25 195.76,-199.34 195.47,-206.33"/>
</g>
<!-- system.ruby.network_gpu.routers01 -->
<g id="node2" class="node">
<title>system.ruby.network_gpu.routers01</title>
<path fill="#cce6fc" stroke="#000000" d="M197,-260.69C197,-260.69 227,-260.69 227,-260.69 233,-260.69 239,-266.69 239,-272.69 239,-272.69 239,-284.69 239,-284.69 239,-290.69 233,-296.69 227,-296.69 227,-296.69 197,-296.69 197,-296.69 191,-296.69 185,-290.69 185,-284.69 185,-284.69 185,-272.69 185,-272.69 185,-266.69 191,-260.69 197,-260.69"/>
<text text-anchor="middle" x="212" y="-274.99" font-family="Arial" font-size="14.00" fill="#000000">R 1</text>
</g>
<!-- system.ruby.network_gpu.routers01&#45;&#45;system.ruby.network_gpu.routers17 -->
<g id="edge2" class="edge">
<title>system.ruby.network_gpu.routers01&#45;&#45;system.ruby.network_gpu.routers17</title>
<path fill="none" stroke="#042d50" d="M222.88,-260.4C226.4,-250.53 229.8,-238.14 232.09,-227.05"/>
<polygon fill="#042d50" stroke="#042d50" points="235.58,-227.4 233.91,-216.94 228.69,-226.16 235.58,-227.4"/>
</g>
<!-- system.ruby.network_gpu.routers02 -->
<g id="node3" class="node">
<title>system.ruby.network_gpu.routers02</title>
<path fill="#cce6fc" stroke="#000000" d="M187.9,-97.18C187.9,-97.18 217.9,-97.18 217.9,-97.18 223.9,-97.18 229.9,-103.18 229.9,-109.18 229.9,-109.18 229.9,-121.18 229.9,-121.18 229.9,-127.18 223.9,-133.18 217.9,-133.18 217.9,-133.18 187.9,-133.18 187.9,-133.18 181.9,-133.18 175.9,-127.18 175.9,-121.18 175.9,-121.18 175.9,-109.18 175.9,-109.18 175.9,-103.18 181.9,-97.18 187.9,-97.18"/>
<text text-anchor="middle" x="202.9" y="-111.48" font-family="Arial" font-size="14.00" fill="#000000">R 2</text>
</g>
<!-- system.ruby.network_gpu.routers02&#45;&#45;system.ruby.network_gpu.routers17 -->
<g id="edge3" class="edge">
<title>system.ruby.network_gpu.routers02&#45;&#45;system.ruby.network_gpu.routers17</title>
<path fill="none" stroke="#042d50" d="M203.64,-133.54C206.32,-144.59 211.1,-158.87 216.12,-171.24"/>
<polygon fill="#042d50" stroke="#042d50" points="213.01,-172.85 220.17,-180.66 219.44,-170.09 213.01,-172.85"/>
</g>
<!-- system.ruby.network_gpu.routers03 -->
<g id="node4" class="node">
<title>system.ruby.network_gpu.routers03</title>
<path fill="#cce6fc" stroke="#000000" d="M130.76,-191.05C130.76,-191.05 160.76,-191.05 160.76,-191.05 166.76,-191.05 172.76,-197.05 172.76,-203.05 172.76,-203.05 172.76,-215.05 172.76,-215.05 172.76,-221.05 166.76,-227.05 160.76,-227.05 160.76,-227.05 130.76,-227.05 130.76,-227.05 124.76,-227.05 118.76,-221.05 118.76,-215.05 118.76,-215.05 118.76,-203.05 118.76,-203.05 118.76,-197.05 124.76,-191.05 130.76,-191.05"/>
<text text-anchor="middle" x="145.76" y="-205.35" font-family="Arial" font-size="14.00" fill="#000000">R 3</text>
</g>
<!-- system.ruby.network_gpu.routers03&#45;&#45;system.ruby.network_gpu.routers17 -->
<g id="edge4" class="edge">
<title>system.ruby.network_gpu.routers03&#45;&#45;system.ruby.network_gpu.routers17</title>
<path fill="none" stroke="#042d50" d="M173.11,-212.11C180.24,-211.68 188.05,-210.89 195.61,-209.86"/>
<polygon fill="#042d50" stroke="#042d50" points="196.31,-213.29 205.66,-208.31 195.24,-206.37 196.31,-213.29"/>
</g>
<!-- system.ruby.network_gpu.routers04 -->
<g id="node5" class="node">
<title>system.ruby.network_gpu.routers04</title>
<path fill="#cce6fc" stroke="#000000" d="M256.94,-255.2C256.94,-255.2 286.94,-255.2 286.94,-255.2 292.94,-255.2 298.94,-261.2 298.94,-267.2 298.94,-267.2 298.94,-279.2 298.94,-279.2 298.94,-285.2 292.94,-291.2 286.94,-291.2 286.94,-291.2 256.94,-291.2 256.94,-291.2 250.94,-291.2 244.94,-285.2 244.94,-279.2 244.94,-279.2 244.94,-267.2 244.94,-267.2 244.94,-261.2 250.94,-255.2 256.94,-255.2"/>
<text text-anchor="middle" x="271.94" y="-269.5" font-family="Arial" font-size="14.00" fill="#000000">R 4</text>
</g>
<!-- system.ruby.network_gpu.routers04&#45;&#45;system.ruby.network_gpu.routers17 -->
<g id="edge5" class="edge">
<title>system.ruby.network_gpu.routers04&#45;&#45;system.ruby.network_gpu.routers17</title>
<path fill="none" stroke="#042d50" d="M268.8,-255.16C265.28,-246.27 259.97,-235.39 254.45,-225.55"/>
<polygon fill="#042d50" stroke="#042d50" points="257.45,-223.74 249.36,-216.89 251.41,-227.29 257.45,-223.74"/>
</g>
<!-- system.ruby.network_gpu.routers05 -->
<g id="node6" class="node">
<title>system.ruby.network_gpu.routers05</title>
<path fill="#cce6fc" stroke="#000000" d="M227.41,-264.62C227.41,-264.62 257.41,-264.62 257.41,-264.62 263.41,-264.62 269.41,-270.62 269.41,-276.62 269.41,-276.62 269.41,-288.62 269.41,-288.62 269.41,-294.62 263.41,-300.62 257.41,-300.62 257.41,-300.62 227.41,-300.62 227.41,-300.62 221.41,-300.62 215.41,-294.62 215.41,-288.62 215.41,-288.62 215.41,-276.62 215.41,-276.62 215.41,-270.62 221.41,-264.62 227.41,-264.62"/>
<text text-anchor="middle" x="242.41" y="-278.92" font-family="Arial" font-size="14.00" fill="#000000">R 5</text>
</g>
<!-- system.ruby.network_gpu.routers05&#45;&#45;system.ruby.network_gpu.routers17 -->
<g id="edge6" class="edge">
<title>system.ruby.network_gpu.routers05&#45;&#45;system.ruby.network_gpu.routers17</title>
<path fill="none" stroke="#042d50" d="M245.99,-264.6C245.91,-253.58 244.57,-239.27 242.55,-226.79"/>
<polygon fill="#042d50" stroke="#042d50" points="245.98,-226.05 240.71,-216.85 239.09,-227.33 245.98,-226.05"/>
</g>
<!-- system.ruby.network_gpu.routers06 -->
<g id="node7" class="node">
<title>system.ruby.network_gpu.routers06</title>
<path fill="#cce6fc" stroke="#000000" d="M167.09,-250.76C167.09,-250.76 197.09,-250.76 197.09,-250.76 203.09,-250.76 209.09,-256.76 209.09,-262.76 209.09,-262.76 209.09,-274.76 209.09,-274.76 209.09,-280.76 203.09,-286.76 197.09,-286.76 197.09,-286.76 167.09,-286.76 167.09,-286.76 161.09,-286.76 155.09,-280.76 155.09,-274.76 155.09,-274.76 155.09,-262.76 155.09,-262.76 155.09,-256.76 161.09,-250.76 167.09,-250.76"/>
<text text-anchor="middle" x="182.09" y="-265.06" font-family="Arial" font-size="14.00" fill="#000000">R 6</text>
</g>
<!-- system.ruby.network_gpu.routers06&#45;&#45;system.ruby.network_gpu.routers17 -->
<g id="edge7" class="edge">
<title>system.ruby.network_gpu.routers06&#45;&#45;system.ruby.network_gpu.routers17</title>
<path fill="none" stroke="#042d50" d="M202.98,-250.67C209.17,-243.09 215.69,-234.14 221.12,-225.81"/>
<polygon fill="#042d50" stroke="#042d50" points="224.22,-227.45 226.51,-217.11 218.27,-223.77 224.22,-227.45"/>
</g>
<!-- system.ruby.network_gpu.routers07 -->
<g id="node8" class="node">
<title>system.ruby.network_gpu.routers07</title>
<path fill="#cce6fc" stroke="#000000" d="M253.07,-103.7C253.07,-103.7 283.07,-103.7 283.07,-103.7 289.07,-103.7 295.07,-109.7 295.07,-115.7 295.07,-115.7 295.07,-127.7 295.07,-127.7 295.07,-133.7 289.07,-139.7 283.07,-139.7 283.07,-139.7 253.07,-139.7 253.07,-139.7 247.07,-139.7 241.07,-133.7 241.07,-127.7 241.07,-127.7 241.07,-115.7 241.07,-115.7 241.07,-109.7 247.07,-103.7 253.07,-103.7"/>
<text text-anchor="middle" x="268.07" y="-118" font-family="Arial" font-size="14.00" fill="#000000">R 7</text>
</g>
<!-- system.ruby.network_gpu.routers07&#45;&#45;system.ruby.network_gpu.routers17 -->
<g id="edge8" class="edge">
<title>system.ruby.network_gpu.routers07&#45;&#45;system.ruby.network_gpu.routers17</title>
<path fill="none" stroke="#042d50" d="M253.13,-139.81C247.98,-149.12 242.59,-160.66 238.5,-171.05"/>
<polygon fill="#042d50" stroke="#042d50" points="235.17,-169.96 235.02,-180.55 241.74,-172.37 235.17,-169.96"/>
</g>
<!-- system.ruby.network_gpu.routers08 -->
<g id="node9" class="node">
<title>system.ruby.network_gpu.routers08</title>
<path fill="#cce6fc" stroke="#000000" d="M301.76,-178.01C301.76,-178.01 331.76,-178.01 331.76,-178.01 337.76,-178.01 343.76,-184.01 343.76,-190.01 343.76,-190.01 343.76,-202.01 343.76,-202.01 343.76,-208.01 337.76,-214.01 331.76,-214.01 331.76,-214.01 301.76,-214.01 301.76,-214.01 295.76,-214.01 289.76,-208.01 289.76,-202.01 289.76,-202.01 289.76,-190.01 289.76,-190.01 289.76,-184.01 295.76,-178.01 301.76,-178.01"/>
<text text-anchor="middle" x="316.76" y="-192.31" font-family="Arial" font-size="14.00" fill="#000000">R 8</text>
</g>
<!-- system.ruby.network_gpu.routers08&#45;&#45;system.ruby.network_gpu.routers17 -->
<g id="edge9" class="edge">
<title>system.ruby.network_gpu.routers08&#45;&#45;system.ruby.network_gpu.routers17</title>
<path fill="none" stroke="#042d50" d="M289.55,-190.51C283.32,-190.37 276.59,-190.46 270.01,-190.77"/>
<polygon fill="#042d50" stroke="#042d50" points="269.66,-187.29 259.91,-191.44 270.12,-194.27 269.66,-187.29"/>
</g>
<!-- system.ruby.network_gpu.routers09 -->
<g id="node10" class="node">
<title>system.ruby.network_gpu.routers09</title>
<path fill="#cce6fc" stroke="#000000" d="M172.25,-122.16C172.25,-122.16 202.25,-122.16 202.25,-122.16 208.25,-122.16 214.25,-128.16 214.25,-134.16 214.25,-134.16 214.25,-146.16 214.25,-146.16 214.25,-152.16 208.25,-158.16 202.25,-158.16 202.25,-158.16 172.25,-158.16 172.25,-158.16 166.25,-158.16 160.25,-152.16 160.25,-146.16 160.25,-146.16 160.25,-134.16 160.25,-134.16 160.25,-128.16 166.25,-122.16 172.25,-122.16"/>
<text text-anchor="middle" x="187.25" y="-136.46" font-family="Arial" font-size="14.00" fill="#000000">R 9</text>
</g>
<!-- system.ruby.network_gpu.routers09&#45;&#45;system.ruby.network_gpu.routers17 -->
<g id="edge10" class="edge">
<title>system.ruby.network_gpu.routers09&#45;&#45;system.ruby.network_gpu.routers17</title>
<path fill="none" stroke="#042d50" d="M193.86,-158.26C196.76,-162.83 200.29,-167.82 204.05,-172.68"/>
<polygon fill="#042d50" stroke="#042d50" points="201.49,-175.09 210.5,-180.66 206.93,-170.69 201.49,-175.09"/>
</g>
<!-- system.ruby.network_gpu.routers10 -->
<g id="node11" class="node">
<title>system.ruby.network_gpu.routers10</title>
<path fill="#cce6fc" stroke="#000000" d="M222.54,-97.09C222.54,-97.09 252.54,-97.09 252.54,-97.09 258.54,-97.09 264.54,-103.09 264.54,-109.09 264.54,-109.09 264.54,-121.09 264.54,-121.09 264.54,-127.09 258.54,-133.09 252.54,-133.09 252.54,-133.09 222.54,-133.09 222.54,-133.09 216.54,-133.09 210.54,-127.09 210.54,-121.09 210.54,-121.09 210.54,-109.09 210.54,-109.09 210.54,-103.09 216.54,-97.09 222.54,-97.09"/>
<text text-anchor="middle" x="237.54" y="-111.39" font-family="Arial" font-size="14.00" fill="#000000">R 10</text>
</g>
<!-- system.ruby.network_gpu.routers10&#45;&#45;system.ruby.network_gpu.routers17 -->
<g id="edge11" class="edge">
<title>system.ruby.network_gpu.routers10&#45;&#45;system.ruby.network_gpu.routers17</title>
<path fill="none" stroke="#042d50" d="M230.79,-133.32C229.11,-144.12 228.1,-158.04 228.03,-170.26"/>
<polygon fill="#042d50" stroke="#042d50" points="224.53,-170.5 228.22,-180.43 231.53,-170.37 224.53,-170.5"/>
</g>
<!-- system.ruby.network_gpu.routers11 -->
<g id="node12" class="node">
<title>system.ruby.network_gpu.routers11</title>
<path fill="#cce6fc" stroke="#000000" d="M276.84,-123.19C276.84,-123.19 306.84,-123.19 306.84,-123.19 312.84,-123.19 318.84,-129.19 318.84,-135.19 318.84,-135.19 318.84,-147.19 318.84,-147.19 318.84,-153.19 312.84,-159.19 306.84,-159.19 306.84,-159.19 276.84,-159.19 276.84,-159.19 270.84,-159.19 264.84,-153.19 264.84,-147.19 264.84,-147.19 264.84,-135.19 264.84,-135.19 264.84,-129.19 270.84,-123.19 276.84,-123.19"/>
<text text-anchor="middle" x="291.84" y="-137.49" font-family="Arial" font-size="14.00" fill="#000000">R 11</text>
</g>
<!-- system.ruby.network_gpu.routers11&#45;&#45;system.ruby.network_gpu.routers17 -->
<g id="edge12" class="edge">
<title>system.ruby.network_gpu.routers11&#45;&#45;system.ruby.network_gpu.routers17</title>
<path fill="none" stroke="#042d50" d="M264.61,-158.53C259.58,-163.1 254.47,-168.11 249.85,-173"/>
<polygon fill="#042d50" stroke="#042d50" points="247.17,-170.75 243.06,-180.52 252.36,-175.44 247.17,-170.75"/>
</g>
<!-- system.ruby.network_gpu.routers12 -->
<g id="node13" class="node">
<title>system.ruby.network_gpu.routers12</title>
<path fill="#cce6fc" stroke="#000000" d="M292.7,-214.3C292.7,-214.3 322.7,-214.3 322.7,-214.3 328.7,-214.3 334.7,-220.3 334.7,-226.3 334.7,-226.3 334.7,-238.3 334.7,-238.3 334.7,-244.3 328.7,-250.3 322.7,-250.3 322.7,-250.3 292.7,-250.3 292.7,-250.3 286.7,-250.3 280.7,-244.3 280.7,-238.3 280.7,-238.3 280.7,-226.3 280.7,-226.3 280.7,-220.3 286.7,-214.3 292.7,-214.3"/>
<text text-anchor="middle" x="307.7" y="-228.6" font-family="Arial" font-size="14.00" fill="#000000">R 12</text>
</g>
<!-- system.ruby.network_gpu.routers12&#45;&#45;system.ruby.network_gpu.routers17 -->
<g id="edge13" class="edge">
<title>system.ruby.network_gpu.routers12&#45;&#45;system.ruby.network_gpu.routers17</title>
<path fill="none" stroke="#042d50" d="M283.35,-214.22C278.91,-211.99 274.2,-209.8 269.5,-207.76"/>
<polygon fill="#042d50" stroke="#042d50" points="270.55,-204.41 259.97,-203.86 267.9,-210.89 270.55,-204.41"/>
</g>
<!-- system.ruby.network_gpu.routers13 -->
<g id="node14" class="node">
<title>system.ruby.network_gpu.routers13</title>
<path fill="#cce6fc" stroke="#000000" d="M283.22,-228.86C283.22,-228.86 313.22,-228.86 313.22,-228.86 319.22,-228.86 325.22,-234.86 325.22,-240.86 325.22,-240.86 325.22,-252.86 325.22,-252.86 325.22,-258.86 319.22,-264.86 313.22,-264.86 313.22,-264.86 283.22,-264.86 283.22,-264.86 277.22,-264.86 271.22,-258.86 271.22,-252.86 271.22,-252.86 271.22,-240.86 271.22,-240.86 271.22,-234.86 277.22,-228.86 283.22,-228.86"/>
<text text-anchor="middle" x="298.22" y="-243.16" font-family="Arial" font-size="14.00" fill="#000000">R 13</text>
</g>
<!-- system.ruby.network_gpu.routers13&#45;&#45;system.ruby.network_gpu.routers17 -->
<g id="edge14" class="edge">
<title>system.ruby.network_gpu.routers13&#45;&#45;system.ruby.network_gpu.routers17</title>
<path fill="none" stroke="#042d50" d="M283.98,-228.79C279.39,-224.83 274.1,-220.66 268.7,-216.71"/>
<polygon fill="#042d50" stroke="#042d50" points="270.4,-213.63 260.21,-210.75 266.38,-219.36 270.4,-213.63"/>
</g>
<!-- system.ruby.network_gpu.routers14 -->
<g id="node15" class="node">
<title>system.ruby.network_gpu.routers14</title>
<path fill="#cce6fc" stroke="#000000" d="M142.68,-135.58C142.68,-135.58 172.68,-135.58 172.68,-135.58 178.68,-135.58 184.68,-141.58 184.68,-147.58 184.68,-147.58 184.68,-159.58 184.68,-159.58 184.68,-165.58 178.68,-171.58 172.68,-171.58 172.68,-171.58 142.68,-171.58 142.68,-171.58 136.68,-171.58 130.68,-165.58 130.68,-159.58 130.68,-159.58 130.68,-147.58 130.68,-147.58 130.68,-141.58 136.68,-135.58 142.68,-135.58"/>
<text text-anchor="middle" x="157.68" y="-149.88" font-family="Arial" font-size="14.00" fill="#000000">R 14</text>
</g>
<!-- system.ruby.network_gpu.routers14&#45;&#45;system.ruby.network_gpu.routers17 -->
<g id="edge15" class="edge">
<title>system.ruby.network_gpu.routers14&#45;&#45;system.ruby.network_gpu.routers17</title>
<path fill="none" stroke="#042d50" d="M175.86,-171.66C182.19,-176.05 189.52,-180.66 196.77,-184.83"/>
<polygon fill="#042d50" stroke="#042d50" points="195.39,-188.07 205.84,-189.84 198.77,-181.94 195.39,-188.07"/>
</g>
<!-- system.ruby.network_gpu.routers15 -->
<g id="node16" class="node">
<title>system.ruby.network_gpu.routers15</title>
<path fill="#cce6fc" stroke="#000000" d="M150.45,-225.11C150.45,-225.11 180.45,-225.11 180.45,-225.11 186.45,-225.11 192.45,-231.11 192.45,-237.11 192.45,-237.11 192.45,-249.11 192.45,-249.11 192.45,-255.11 186.45,-261.11 180.45,-261.11 180.45,-261.11 150.45,-261.11 150.45,-261.11 144.45,-261.11 138.45,-255.11 138.45,-249.11 138.45,-249.11 138.45,-237.11 138.45,-237.11 138.45,-231.11 144.45,-225.11 150.45,-225.11"/>
<text text-anchor="middle" x="165.45" y="-239.41" font-family="Arial" font-size="14.00" fill="#000000">R 15</text>
</g>
<!-- system.ruby.network_gpu.routers15&#45;&#45;system.ruby.network_gpu.routers17 -->
<g id="edge16" class="edge">
<title>system.ruby.network_gpu.routers15&#45;&#45;system.ruby.network_gpu.routers17</title>
<path fill="none" stroke="#042d50" d="M192.59,-232.97C197.81,-229.88 203.24,-226.37 208.37,-222.81"/>
<polygon fill="#042d50" stroke="#042d50" points="210.59,-225.52 216.62,-216.81 206.47,-219.86 210.59,-225.52"/>
</g>
<!-- system.ruby.network_gpu.routers16 -->
<g id="node17" class="node">
<title>system.ruby.network_gpu.routers16</title>
<path fill="#cce6fc" stroke="#000000" d="M295.77,-147.47C295.77,-147.47 325.77,-147.47 325.77,-147.47 331.77,-147.47 337.77,-153.47 337.77,-159.47 337.77,-159.47 337.77,-171.47 337.77,-171.47 337.77,-177.47 331.77,-183.47 325.77,-183.47 325.77,-183.47 295.77,-183.47 295.77,-183.47 289.77,-183.47 283.77,-177.47 283.77,-171.47 283.77,-171.47 283.77,-159.47 283.77,-159.47 283.77,-153.47 289.77,-147.47 295.77,-147.47"/>
<text text-anchor="middle" x="310.77" y="-161.77" font-family="Arial" font-size="14.00" fill="#000000">R 16</text>
</g>
<!-- system.ruby.network_gpu.routers16&#45;&#45;system.ruby.network_gpu.routers17 -->
<g id="edge17" class="edge">
<title>system.ruby.network_gpu.routers16&#45;&#45;system.ruby.network_gpu.routers17</title>
<path fill="none" stroke="#042d50" d="M283.52,-177.08C278.99,-179.01 274.22,-181.04 269.5,-183.06"/>
<polygon fill="#042d50" stroke="#042d50" points="267.79,-179.98 259.97,-187.12 270.54,-186.42 267.79,-179.98"/>
</g>
<!-- system.ruby.network_gpu.routers17&#45;&#45;system.ruby.network_gpu.routers00 -->
<g id="edge18" class="edge">
<title>system.ruby.network_gpu.routers17&#45;&#45;system.ruby.network_gpu.routers00</title>
<path fill="none" stroke="#042d50" d="M205.44,-190.24C201.43,-189.78 197.25,-189.41 193.09,-189.15"/>
<polygon fill="#042d50" stroke="#042d50" points="193.03,-185.64 182.89,-188.72 192.74,-192.63 193.03,-185.64"/>
</g>
<!-- system.ruby.network_gpu.routers17&#45;&#45;system.ruby.network_gpu.routers01 -->
<g id="edge19" class="edge">
<title>system.ruby.network_gpu.routers17&#45;&#45;system.ruby.network_gpu.routers01</title>
<path fill="none" stroke="#042d50" d="M221.98,-216.96C218.47,-226.83 215.07,-239.22 212.77,-250.31"/>
<polygon fill="#042d50" stroke="#042d50" points="209.28,-249.96 210.95,-260.42 216.17,-251.2 209.28,-249.96"/>
</g>
<!-- system.ruby.network_gpu.routers17&#45;&#45;system.ruby.network_gpu.routers02 -->
<g id="edge20" class="edge">
<title>system.ruby.network_gpu.routers17&#45;&#45;system.ruby.network_gpu.routers02</title>
<path fill="none" stroke="#042d50" d="M232.13,-180.32C229.44,-169.26 224.67,-154.99 219.64,-142.61"/>
<polygon fill="#042d50" stroke="#042d50" points="222.76,-141 215.59,-133.2 216.33,-143.77 222.76,-141"/>
</g>
<!-- system.ruby.network_gpu.routers17&#45;&#45;system.ruby.network_gpu.routers03 -->
<g id="edge21" class="edge">
<title>system.ruby.network_gpu.routers17&#45;&#45;system.ruby.network_gpu.routers03</title>
<path fill="none" stroke="#042d50" d="M205.52,-195.61C198.38,-196.04 190.57,-196.83 183.01,-197.86"/>
<polygon fill="#042d50" stroke="#042d50" points="182.31,-194.43 172.96,-199.41 183.38,-201.34 182.31,-194.43"/>
</g>
<!-- system.ruby.network_gpu.routers17&#45;&#45;system.ruby.network_gpu.routers04 -->
<g id="edge22" class="edge">
<title>system.ruby.network_gpu.routers17&#45;&#45;system.ruby.network_gpu.routers04</title>
<path fill="none" stroke="#042d50" d="M236.01,-216.71C239.53,-225.6 244.84,-236.48 250.36,-246.32"/>
<polygon fill="#042d50" stroke="#042d50" points="247.36,-248.13 255.45,-254.98 253.4,-244.59 247.36,-248.13"/>
</g>
<!-- system.ruby.network_gpu.routers17&#45;&#45;system.ruby.network_gpu.routers05 -->
<g id="edge23" class="edge">
<title>system.ruby.network_gpu.routers17&#45;&#45;system.ruby.network_gpu.routers05</title>
<path fill="none" stroke="#042d50" d="M229.29,-216.7C229.37,-227.71 230.71,-242.03 232.73,-254.5"/>
<polygon fill="#042d50" stroke="#042d50" points="229.3,-255.24 234.57,-264.44 236.19,-253.97 229.3,-255.24"/>
</g>
<!-- system.ruby.network_gpu.routers17&#45;&#45;system.ruby.network_gpu.routers06 -->
<g id="edge24" class="edge">
<title>system.ruby.network_gpu.routers17&#45;&#45;system.ruby.network_gpu.routers06</title>
<path fill="none" stroke="#042d50" d="M211.98,-216.77C205.79,-224.35 199.27,-233.29 193.84,-241.62"/>
<polygon fill="#042d50" stroke="#042d50" points="190.74,-239.98 188.45,-250.32 196.7,-243.67 190.74,-239.98"/>
</g>
<!-- system.ruby.network_gpu.routers17&#45;&#45;system.ruby.network_gpu.routers07 -->
<g id="edge25" class="edge">
<title>system.ruby.network_gpu.routers17&#45;&#45;system.ruby.network_gpu.routers07</title>
<path fill="none" stroke="#042d50" d="M247.81,-180.56C252.96,-171.25 258.34,-159.71 262.44,-149.32"/>
<polygon fill="#042d50" stroke="#042d50" points="265.76,-150.41 265.91,-139.82 259.19,-148.01 265.76,-150.41"/>
</g>
<!-- system.ruby.network_gpu.routers17&#45;&#45;system.ruby.network_gpu.routers08 -->
<g id="edge26" class="edge">
<title>system.ruby.network_gpu.routers17&#45;&#45;system.ruby.network_gpu.routers08</title>
<path fill="none" stroke="#042d50" d="M260.07,-204.16C266.31,-204.31 273.04,-204.22 279.62,-203.9"/>
<polygon fill="#042d50" stroke="#042d50" points="279.97,-207.39 289.72,-203.24 279.51,-200.4 279.97,-207.39"/>
</g>
<!-- system.ruby.network_gpu.routers17&#45;&#45;system.ruby.network_gpu.routers09 -->
<g id="edge27" class="edge">
<title>system.ruby.network_gpu.routers17&#45;&#45;system.ruby.network_gpu.routers09</title>
<path fill="none" stroke="#042d50" d="M226.25,-180.57C223.36,-176 219.82,-171.01 216.06,-166.15"/>
<polygon fill="#042d50" stroke="#042d50" points="218.62,-163.74 209.61,-158.17 213.18,-168.14 218.62,-163.74"/>
</g>
<!-- system.ruby.network_gpu.routers17&#45;&#45;system.ruby.network_gpu.routers10 -->
<g id="edge28" class="edge">
<title>system.ruby.network_gpu.routers17&#45;&#45;system.ruby.network_gpu.routers10</title>
<path fill="none" stroke="#042d50" d="M239.61,-180.44C241.3,-169.64 242.31,-155.72 242.38,-143.5"/>
<polygon fill="#042d50" stroke="#042d50" points="245.87,-143.26 242.18,-133.33 238.87,-143.39 245.87,-143.26"/>
</g>
<!-- system.ruby.network_gpu.routers17&#45;&#45;system.ruby.network_gpu.routers11 -->
<g id="edge29" class="edge">
<title>system.ruby.network_gpu.routers17&#45;&#45;system.ruby.network_gpu.routers11</title>
<path fill="none" stroke="#042d50" d="M260.09,-181.33C265.12,-176.76 270.23,-171.75 274.85,-166.86"/>
<polygon fill="#042d50" stroke="#042d50" points="277.54,-169.11 281.64,-159.34 272.34,-164.42 277.54,-169.11"/>
</g>
<!-- system.ruby.network_gpu.routers17&#45;&#45;system.ruby.network_gpu.routers12 -->
<g id="edge30" class="edge">
<title>system.ruby.network_gpu.routers17&#45;&#45;system.ruby.network_gpu.routers12</title>
<path fill="none" stroke="#042d50" d="M257.21,-216.75C261.65,-218.98 266.37,-221.17 271.07,-223.21"/>
<polygon fill="#042d50" stroke="#042d50" points="270.01,-226.56 280.59,-227.11 272.67,-220.08 270.01,-226.56"/>
</g>
<!-- system.ruby.network_gpu.routers17&#45;&#45;system.ruby.network_gpu.routers13 -->
<g id="edge31" class="edge">
<title>system.ruby.network_gpu.routers17&#45;&#45;system.ruby.network_gpu.routers13</title>
<path fill="none" stroke="#042d50" d="M247.11,-216.74C251.7,-220.7 256.98,-224.87 262.38,-228.82"/>
<polygon fill="#042d50" stroke="#042d50" points="260.68,-231.9 270.88,-234.78 264.71,-226.17 260.68,-231.9"/>
</g>
<!-- system.ruby.network_gpu.routers17&#45;&#45;system.ruby.network_gpu.routers14 -->
<g id="edge32" class="edge">
<title>system.ruby.network_gpu.routers17&#45;&#45;system.ruby.network_gpu.routers14</title>
<path fill="none" stroke="#042d50" d="M214.69,-180.59C208.36,-176.2 201.03,-171.59 193.78,-167.42"/>
<polygon fill="#042d50" stroke="#042d50" points="195.16,-164.18 184.71,-162.41 191.78,-170.31 195.16,-164.18"/>
</g>
<!-- system.ruby.network_gpu.routers17&#45;&#45;system.ruby.network_gpu.routers15 -->
<g id="edge33" class="edge">
<title>system.ruby.network_gpu.routers17&#45;&#45;system.ruby.network_gpu.routers15</title>
<path fill="none" stroke="#042d50" d="M205.73,-208.81C200.51,-211.91 195.08,-215.41 189.95,-218.98"/>
<polygon fill="#042d50" stroke="#042d50" points="187.73,-216.26 181.7,-224.98 191.84,-221.93 187.73,-216.26"/>
</g>
<!-- system.ruby.tcp_cntrl0 -->
<g id="node19" class="node">
<title>system.ruby.tcp_cntrl0</title>
<path fill="#e5bcd0" stroke="#000000" d="M17.23,-206.4C17.23,-206.4 97.23,-206.4 97.23,-206.4 103.23,-206.4 109.23,-212.4 109.23,-218.4 109.23,-218.4 109.23,-230.4 109.23,-230.4 109.23,-236.4 103.23,-242.4 97.23,-242.4 97.23,-242.4 17.23,-242.4 17.23,-242.4 11.23,-242.4 5.23,-236.4 5.23,-230.4 5.23,-230.4 5.23,-218.4 5.23,-218.4 5.23,-212.4 11.23,-206.4 17.23,-206.4"/>
<text text-anchor="middle" x="57.23" y="-220.7" font-family="Arial" font-size="14.00" fill="#000000">ruby.tcp_cntrl0</text>
</g>
<!-- system.ruby.tcp_cntrl0&#45;&#45;system.ruby.network_gpu.routers00 -->
<g id="edge34" class="edge">
<title>system.ruby.tcp_cntrl0&#45;&#45;system.ruby.network_gpu.routers00</title>
<path fill="none" stroke="#381526" d="M118.86,-204.93C118.96,-204.89 119.06,-204.86 119.17,-204.83"/>
<polygon fill="#381526" stroke="#381526" points="117.79,-201.59 109.31,-207.94 119.9,-208.27 117.79,-201.59"/>
<polygon fill="#381526" stroke="#381526" points="120.05,-208.22 128.53,-201.87 117.94,-201.54 120.05,-208.22"/>
</g>
<!-- system.ruby.tcp_cntrl1 -->
<g id="node20" class="node">
<title>system.ruby.tcp_cntrl1</title>
<path fill="#e5bcd0" stroke="#000000" d="M146.97,-354.93C146.97,-354.93 226.97,-354.93 226.97,-354.93 232.97,-354.93 238.97,-360.93 238.97,-366.93 238.97,-366.93 238.97,-378.93 238.97,-378.93 238.97,-384.93 232.97,-390.93 226.97,-390.93 226.97,-390.93 146.97,-390.93 146.97,-390.93 140.97,-390.93 134.97,-384.93 134.97,-378.93 134.97,-378.93 134.97,-366.93 134.97,-366.93 134.97,-360.93 140.97,-354.93 146.97,-354.93"/>
<text text-anchor="middle" x="186.97" y="-369.23" font-family="Arial" font-size="14.00" fill="#000000">ruby.tcp_cntrl1</text>
</g>
<!-- system.ruby.tcp_cntrl1&#45;&#45;system.ruby.network_gpu.routers01 -->
<g id="edge35" class="edge">
<title>system.ruby.tcp_cntrl1&#45;&#45;system.ruby.network_gpu.routers01</title>
<path fill="none" stroke="#381526" d="M194.37,-345.09C197.57,-333.02 201.32,-318.92 204.53,-306.82"/>
<polygon fill="#381526" stroke="#381526" points="190.98,-344.2 191.8,-354.76 197.75,-345.99 190.98,-344.2"/>
<polygon fill="#381526" stroke="#381526" points="208,-307.37 207.19,-296.8 201.24,-305.57 208,-307.37"/>
</g>
<!-- system.ruby.tcp_cntrl2 -->
<g id="node21" class="node">
<title>system.ruby.tcp_cntrl2</title>
<path fill="#e5bcd0" stroke="#000000" d="M132.84,-8.29C132.84,-8.29 212.84,-8.29 212.84,-8.29 218.84,-8.29 224.84,-14.29 224.84,-20.29 224.84,-20.29 224.84,-32.29 224.84,-32.29 224.84,-38.29 218.84,-44.29 212.84,-44.29 212.84,-44.29 132.84,-44.29 132.84,-44.29 126.84,-44.29 120.84,-38.29 120.84,-32.29 120.84,-32.29 120.84,-20.29 120.84,-20.29 120.84,-14.29 126.84,-8.29 132.84,-8.29"/>
<text text-anchor="middle" x="172.84" y="-22.59" font-family="Arial" font-size="14.00" fill="#000000">ruby.tcp_cntrl2</text>
</g>
<!-- system.ruby.tcp_cntrl2&#45;&#45;system.ruby.network_gpu.routers02 -->
<g id="edge36" class="edge">
<title>system.ruby.tcp_cntrl2&#45;&#45;system.ruby.network_gpu.routers02</title>
<path fill="none" stroke="#381526" d="M182.32,-54.34C185.9,-64.93 189.97,-76.97 193.54,-87.52"/>
<polygon fill="#381526" stroke="#381526" points="185.58,-53.06 179.06,-44.71 178.95,-55.3 185.58,-53.06"/>
<polygon fill="#381526" stroke="#381526" points="190.26,-88.74 196.78,-97.09 196.89,-86.5 190.26,-88.74"/>
</g>
<!-- system.ruby.tcp_cntrl3 -->
<g id="node22" class="node">
<title>system.ruby.tcp_cntrl3</title>
<path fill="#e5bcd0" stroke="#000000" d="M12,-166.64C12,-166.64 92,-166.64 92,-166.64 98,-166.64 104,-172.64 104,-178.64 104,-178.64 104,-190.64 104,-190.64 104,-196.64 98,-202.64 92,-202.64 92,-202.64 12,-202.64 12,-202.64 6,-202.64 0,-196.64 0,-190.64 0,-190.64 0,-178.64 0,-178.64 0,-172.64 6,-166.64 12,-166.64"/>
<text text-anchor="middle" x="52" y="-180.94" font-family="Arial" font-size="14.00" fill="#000000">ruby.tcp_cntrl3</text>
</g>
<!-- system.ruby.tcp_cntrl3&#45;&#45;system.ruby.network_gpu.routers03 -->
<g id="edge37" class="edge">
<title>system.ruby.tcp_cntrl3&#45;&#45;system.ruby.network_gpu.routers03</title>
<path fill="none" stroke="#381526" d="M113.99,-200.78C114.08,-200.8 114.17,-200.82 114.27,-200.85"/>
<polygon fill="#381526" stroke="#381526" points="114.65,-197.33 104.09,-198.2 112.88,-204.1 114.65,-197.33"/>
<polygon fill="#381526" stroke="#381526" points="107.75,-202.77 118.31,-201.9 109.51,-195.99 107.75,-202.77"/>
</g>
<!-- system.ruby.sqc_cntrl0 -->
<g id="node23" class="node">
<title>system.ruby.sqc_cntrl0</title>
<path fill="#e5bcd0" stroke="#000000" d="M274.73,-340.91C274.73,-340.91 357.73,-340.91 357.73,-340.91 363.73,-340.91 369.73,-346.91 369.73,-352.91 369.73,-352.91 369.73,-364.91 369.73,-364.91 369.73,-370.91 363.73,-376.91 357.73,-376.91 357.73,-376.91 274.73,-376.91 274.73,-376.91 268.73,-376.91 262.73,-370.91 262.73,-364.91 262.73,-364.91 262.73,-352.91 262.73,-352.91 262.73,-346.91 268.73,-340.91 274.73,-340.91"/>
<text text-anchor="middle" x="316.23" y="-355.21" font-family="Arial" font-size="14.00" fill="#000000">ruby.sqc_cntrl0</text>
</g>
<!-- system.ruby.sqc_cntrl0&#45;&#45;system.ruby.network_gpu.routers04 -->
<g id="edge38" class="edge">
<title>system.ruby.sqc_cntrl0&#45;&#45;system.ruby.network_gpu.routers04</title>
<path fill="none" stroke="#381526" d="M302.14,-331.64C296.98,-321.66 291.16,-310.39 286.01,-300.42"/>
<polygon fill="#381526" stroke="#381526" points="299.14,-333.45 306.84,-340.73 305.35,-330.24 299.14,-333.45"/>
<polygon fill="#381526" stroke="#381526" points="289.02,-298.63 281.32,-291.35 282.8,-301.84 289.02,-298.63"/>
</g>
<!-- system.ruby.scalar_cntrl0 -->
<g id="node24" class="node">
<title>system.ruby.scalar_cntrl0</title>
<path fill="#e5bcd0" stroke="#000000" d="M203.8,-360.37C203.8,-360.37 301.8,-360.37 301.8,-360.37 307.8,-360.37 313.8,-366.37 313.8,-372.37 313.8,-372.37 313.8,-384.37 313.8,-384.37 313.8,-390.37 307.8,-396.37 301.8,-396.37 301.8,-396.37 203.8,-396.37 203.8,-396.37 197.8,-396.37 191.8,-390.37 191.8,-384.37 191.8,-384.37 191.8,-372.37 191.8,-372.37 191.8,-366.37 197.8,-360.37 203.8,-360.37"/>
<text text-anchor="middle" x="252.8" y="-374.67" font-family="Arial" font-size="14.00" fill="#000000">ruby.scalar_cntrl0</text>
</g>
<!-- system.ruby.scalar_cntrl0&#45;&#45;system.ruby.network_gpu.routers05 -->
<g id="edge39" class="edge">
<title>system.ruby.scalar_cntrl0&#45;&#45;system.ruby.network_gpu.routers05</title>
<path fill="none" stroke="#381526" d="M249.73,-350.02C248.39,-337.72 246.83,-323.36 245.5,-311.05"/>
<polygon fill="#381526" stroke="#381526" points="246.29,-350.79 250.85,-360.36 253.25,-350.04 246.29,-350.79"/>
<polygon fill="#381526" stroke="#381526" points="248.95,-310.44 244.39,-300.88 241.99,-311.19 248.95,-310.44"/>
</g>
<!-- system.ruby.tcc_cntrl0 -->
<g id="node25" class="node">
<title>system.ruby.tcc_cntrl0</title>
<path fill="#e5bcd0" stroke="#000000" d="M86.1,-327.79C86.1,-327.79 166.1,-327.79 166.1,-327.79 172.1,-327.79 178.1,-333.79 178.1,-339.79 178.1,-339.79 178.1,-351.79 178.1,-351.79 178.1,-357.79 172.1,-363.79 166.1,-363.79 166.1,-363.79 86.1,-363.79 86.1,-363.79 80.1,-363.79 74.1,-357.79 74.1,-351.79 74.1,-351.79 74.1,-339.79 74.1,-339.79 74.1,-333.79 80.1,-327.79 86.1,-327.79"/>
<text text-anchor="middle" x="126.1" y="-342.09" font-family="Arial" font-size="14.00" fill="#000000">ruby.tcc_cntrl0</text>
</g>
<!-- system.ruby.tcc_cntrl0&#45;&#45;system.ruby.network_gpu.routers06 -->
<g id="edge40" class="edge">
<title>system.ruby.tcc_cntrl0&#45;&#45;system.ruby.network_gpu.routers06</title>
<path fill="none" stroke="#381526" d="M145.34,-319.32C151.05,-311.47 157.3,-302.87 163,-295.03"/>
<polygon fill="#381526" stroke="#381526" points="142.42,-317.39 139.37,-327.54 148.08,-321.5 142.42,-317.39"/>
<polygon fill="#381526" stroke="#381526" points="165.87,-297.03 168.92,-286.89 160.21,-292.92 165.87,-297.03"/>
</g>
<!-- system.dma_cntrls12 -->
<g id="node26" class="node">
<title>system.dma_cntrls12</title>
<path fill="#e5bcd0" stroke="#000000" d="M271.57,-16.59C271.57,-16.59 345.57,-16.59 345.57,-16.59 351.57,-16.59 357.57,-22.59 357.57,-28.59 357.57,-28.59 357.57,-40.59 357.57,-40.59 357.57,-46.59 351.57,-52.59 345.57,-52.59 345.57,-52.59 271.57,-52.59 271.57,-52.59 265.57,-52.59 259.57,-46.59 259.57,-40.59 259.57,-40.59 259.57,-28.59 259.57,-28.59 259.57,-22.59 265.57,-16.59 271.57,-16.59"/>
<text text-anchor="middle" x="308.57" y="-30.89" font-family="Arial" font-size="14.00" fill="#000000">dma_cntrls12</text>
</g>
<!-- system.dma_cntrls12&#45;&#45;system.ruby.network_gpu.routers07 -->
<g id="edge41" class="edge">
<title>system.dma_cntrls12&#45;&#45;system.ruby.network_gpu.routers07</title>
<path fill="none" stroke="#381526" d="M295.82,-62.02C291.03,-72.32 285.59,-84.02 280.8,-94.32"/>
<polygon fill="#381526" stroke="#381526" points="299.14,-63.18 300.18,-52.64 292.79,-60.23 299.14,-63.18"/>
<polygon fill="#381526" stroke="#381526" points="277.49,-93.13 276.45,-103.67 283.84,-96.08 277.49,-93.13"/>
</g>
<!-- system.dma_cntrls13 -->
<g id="node27" class="node">
<title>system.dma_cntrls13</title>
<path fill="#e5bcd0" stroke="#000000" d="M376.21,-176.68C376.21,-176.68 450.21,-176.68 450.21,-176.68 456.21,-176.68 462.21,-182.68 462.21,-188.68 462.21,-188.68 462.21,-200.68 462.21,-200.68 462.21,-206.68 456.21,-212.68 450.21,-212.68 450.21,-212.68 376.21,-212.68 376.21,-212.68 370.21,-212.68 364.21,-206.68 364.21,-200.68 364.21,-200.68 364.21,-188.68 364.21,-188.68 364.21,-182.68 370.21,-176.68 376.21,-176.68"/>
<text text-anchor="middle" x="413.21" y="-190.98" font-family="Arial" font-size="14.00" fill="#000000">dma_cntrls13</text>
</g>
<!-- system.dma_cntrls13&#45;&#45;system.ruby.network_gpu.routers08 -->
<g id="edge42" class="edge">
<title>system.dma_cntrls13&#45;&#45;system.ruby.network_gpu.routers08</title>
<path fill="none" stroke="#381526" d="M354.08,-195.49C353.97,-195.49 353.86,-195.5 353.75,-195.5"/>
<polygon fill="#381526" stroke="#381526" points="354.19,-198.99 364.14,-195.35 354.09,-191.99 354.19,-198.99"/>
<polygon fill="#381526" stroke="#381526" points="353.8,-192 343.85,-195.63 353.9,-199 353.8,-192"/>
</g>
<!-- system.dma_cntrls14 -->
<g id="node28" class="node">
<title>system.dma_cntrls14</title>
<path fill="#e5bcd0" stroke="#000000" d="M85.47,-42.47C85.47,-42.47 159.47,-42.47 159.47,-42.47 165.47,-42.47 171.47,-48.47 171.47,-54.47 171.47,-54.47 171.47,-66.47 171.47,-66.47 171.47,-72.47 165.47,-78.47 159.47,-78.47 159.47,-78.47 85.47,-78.47 85.47,-78.47 79.47,-78.47 73.47,-72.47 73.47,-66.47 73.47,-66.47 73.47,-54.47 73.47,-54.47 73.47,-48.47 79.47,-42.47 85.47,-42.47"/>
<text text-anchor="middle" x="122.47" y="-56.77" font-family="Arial" font-size="14.00" fill="#000000">dma_cntrls14</text>
</g>
<!-- system.dma_cntrls14&#45;&#45;system.ruby.network_gpu.routers09 -->
<g id="edge43" class="edge">
<title>system.dma_cntrls14&#45;&#45;system.ruby.network_gpu.routers09</title>
<path fill="none" stroke="#381526" d="M143.74,-86.64C150.98,-95.54 159.06,-105.48 166.27,-114.36"/>
<polygon fill="#381526" stroke="#381526" points="146.19,-84.1 137.17,-78.55 140.76,-88.52 146.19,-84.1"/>
<polygon fill="#381526" stroke="#381526" points="163.58,-116.59 172.6,-122.15 169.01,-112.18 163.58,-116.59"/>
</g>
<!-- system.dma_cntrls15 -->
<g id="node29" class="node">
<title>system.dma_cntrls15</title>
<path fill="#e5bcd0" stroke="#000000" d="M206.17,-0.5C206.17,-0.5 280.17,-0.5 280.17,-0.5 286.17,-0.5 292.17,-6.5 292.17,-12.5 292.17,-12.5 292.17,-24.5 292.17,-24.5 292.17,-30.5 286.17,-36.5 280.17,-36.5 280.17,-36.5 206.17,-36.5 206.17,-36.5 200.17,-36.5 194.17,-30.5 194.17,-24.5 194.17,-24.5 194.17,-12.5 194.17,-12.5 194.17,-6.5 200.17,-0.5 206.17,-0.5"/>
<text text-anchor="middle" x="243.17" y="-14.8" font-family="Arial" font-size="14.00" fill="#000000">dma_cntrls15</text>
</g>
<!-- system.dma_cntrls15&#45;&#45;system.ruby.network_gpu.routers10 -->
<g id="edge44" class="edge">
<title>system.dma_cntrls15&#45;&#45;system.ruby.network_gpu.routers10</title>
<path fill="none" stroke="#381526" d="M241.52,-46.71C240.78,-59.39 239.91,-74.32 239.18,-86.99"/>
<polygon fill="#381526" stroke="#381526" points="245.02,-46.85 242.11,-36.67 238.03,-46.45 245.02,-46.85"/>
<polygon fill="#381526" stroke="#381526" points="235.68,-86.82 238.59,-97 242.67,-87.22 235.68,-86.82"/>
</g>
<!-- system.dma_cntrls16 -->
<g id="node30" class="node">
<title>system.dma_cntrls16</title>
<path fill="#e5bcd0" stroke="#000000" d="M325.25,-55.89C325.25,-55.89 399.25,-55.89 399.25,-55.89 405.25,-55.89 411.25,-61.89 411.25,-67.89 411.25,-67.89 411.25,-79.89 411.25,-79.89 411.25,-85.89 405.25,-91.89 399.25,-91.89 399.25,-91.89 325.25,-91.89 325.25,-91.89 319.25,-91.89 313.25,-85.89 313.25,-79.89 313.25,-79.89 313.25,-67.89 313.25,-67.89 313.25,-61.89 319.25,-55.89 325.25,-55.89"/>
<text text-anchor="middle" x="362.25" y="-70.19" font-family="Arial" font-size="14.00" fill="#000000">dma_cntrls16</text>
</g>
<!-- system.dma_cntrls16&#45;&#45;system.ruby.network_gpu.routers11 -->
<g id="edge45" class="edge">
<title>system.dma_cntrls16&#45;&#45;system.ruby.network_gpu.routers11</title>
<path fill="none" stroke="#381526" d="M335.96,-99.02C330.2,-104.52 324.11,-110.34 318.35,-115.85"/>
<polygon fill="#381526" stroke="#381526" points="338.57,-101.37 343.38,-91.93 333.73,-96.3 338.57,-101.37"/>
<polygon fill="#381526" stroke="#381526" points="315.57,-113.66 310.76,-123.1 320.41,-118.72 315.57,-113.66"/>
</g>
<!-- system.dma_cntrls17 -->
<g id="node31" class="node">
<title>system.dma_cntrls17</title>
<path fill="#e5bcd0" stroke="#000000" d="M338.34,-288.39C338.34,-288.39 412.34,-288.39 412.34,-288.39 418.34,-288.39 424.34,-294.39 424.34,-300.39 424.34,-300.39 424.34,-312.39 424.34,-312.39 424.34,-318.39 418.34,-324.39 412.34,-324.39 412.34,-324.39 338.34,-324.39 338.34,-324.39 332.34,-324.39 326.34,-318.39 326.34,-312.39 326.34,-312.39 326.34,-300.39 326.34,-300.39 326.34,-294.39 332.34,-288.39 338.34,-288.39"/>
<text text-anchor="middle" x="375.34" y="-302.69" font-family="Arial" font-size="14.00" fill="#000000">dma_cntrls17</text>
</g>
<!-- system.dma_cntrls17&#45;&#45;system.ruby.network_gpu.routers12 -->
<g id="edge46" class="edge">
<title>system.dma_cntrls17&#45;&#45;system.ruby.network_gpu.routers12</title>
<path fill="none" stroke="#381526" d="M351.64,-280.44C345,-273.15 337.77,-265.24 331.14,-257.97"/>
<polygon fill="#381526" stroke="#381526" points="349.29,-283.05 358.62,-288.08 354.46,-278.33 349.29,-283.05"/>
<polygon fill="#381526" stroke="#381526" points="333.55,-255.43 324.23,-250.4 328.38,-260.15 333.55,-255.43"/>
</g>
<!-- system.dma_cntrls18 -->
<g id="node32" class="node">
<title>system.dma_cntrls18</title>
<path fill="#e5bcd0" stroke="#000000" d="M358.49,-254.18C358.49,-254.18 432.49,-254.18 432.49,-254.18 438.49,-254.18 444.49,-260.18 444.49,-266.18 444.49,-266.18 444.49,-278.18 444.49,-278.18 444.49,-284.18 438.49,-290.18 432.49,-290.18 432.49,-290.18 358.49,-290.18 358.49,-290.18 352.49,-290.18 346.49,-284.18 346.49,-278.18 346.49,-278.18 346.49,-266.18 346.49,-266.18 346.49,-260.18 352.49,-254.18 358.49,-254.18"/>
<text text-anchor="middle" x="395.49" y="-268.48" font-family="Arial" font-size="14.00" fill="#000000">dma_cntrls18</text>
</g>
<!-- system.dma_cntrls18&#45;&#45;system.ruby.network_gpu.routers13 -->
<g id="edge47" class="edge">
<title>system.dma_cntrls18&#45;&#45;system.ruby.network_gpu.routers13</title>
<path fill="none" stroke="#381526" d="M336.29,-256.77C335.94,-256.68 335.59,-256.59 335.24,-256.5"/>
<polygon fill="#381526" stroke="#381526" points="335.73,-260.24 346.29,-259.37 337.49,-253.47 335.73,-260.24"/>
<polygon fill="#381526" stroke="#381526" points="336.03,-253.09 325.47,-253.95 334.26,-259.86 336.03,-253.09"/>
</g>
<!-- system.dma_cntrls19 -->
<g id="node33" class="node">
<title>system.dma_cntrls19</title>
<path fill="#e5bcd0" stroke="#000000" d="M38.22,-89.39C38.22,-89.39 112.22,-89.39 112.22,-89.39 118.22,-89.39 124.22,-95.39 124.22,-101.39 124.22,-101.39 124.22,-113.39 124.22,-113.39 124.22,-119.39 118.22,-125.39 112.22,-125.39 112.22,-125.39 38.22,-125.39 38.22,-125.39 32.22,-125.39 26.22,-119.39 26.22,-113.39 26.22,-113.39 26.22,-101.39 26.22,-101.39 26.22,-95.39 32.22,-89.39 38.22,-89.39"/>
<text text-anchor="middle" x="75.22" y="-103.69" font-family="Arial" font-size="14.00" fill="#000000">dma_cntrls19</text>
</g>
<!-- system.dma_cntrls19&#45;&#45;system.ruby.network_gpu.routers14 -->
<g id="edge48" class="edge">
<title>system.dma_cntrls19&#45;&#45;system.ruby.network_gpu.routers14</title>
<path fill="none" stroke="#381526" d="M116.79,-130.68C118.41,-131.58 120.03,-132.49 121.63,-133.39"/>
<polygon fill="#381526" stroke="#381526" points="118.24,-127.48 107.81,-125.65 114.82,-133.59 118.24,-127.48"/>
<polygon fill="#381526" stroke="#381526" points="120.2,-136.6 130.64,-138.43 123.62,-130.49 120.2,-136.6"/>
</g>
<!-- system.dma_cntrls20 -->
<g id="node34" class="node">
<title>system.dma_cntrls20</title>
<path fill="#e5bcd0" stroke="#000000" d="M45.73,-279.33C45.73,-279.33 119.73,-279.33 119.73,-279.33 125.73,-279.33 131.73,-285.33 131.73,-291.33 131.73,-291.33 131.73,-303.33 131.73,-303.33 131.73,-309.33 125.73,-315.33 119.73,-315.33 119.73,-315.33 45.73,-315.33 45.73,-315.33 39.73,-315.33 33.73,-309.33 33.73,-303.33 33.73,-303.33 33.73,-291.33 33.73,-291.33 33.73,-285.33 39.73,-279.33 45.73,-279.33"/>
<text text-anchor="middle" x="82.73" y="-293.63" font-family="Arial" font-size="14.00" fill="#000000">dma_cntrls20</text>
</g>
<!-- system.dma_cntrls20&#45;&#45;system.ruby.network_gpu.routers15 -->
<g id="edge49" class="edge">
<title>system.dma_cntrls20&#45;&#45;system.ruby.network_gpu.routers15</title>
<path fill="none" stroke="#381526" d="M118.96,-273.58C122.52,-271.26 126.12,-268.89 129.67,-266.57"/>
<polygon fill="#381526" stroke="#381526" points="116.72,-270.87 110.27,-279.28 120.56,-276.72 116.72,-270.87"/>
<polygon fill="#381526" stroke="#381526" points="131.86,-269.31 138.31,-260.9 128.03,-263.46 131.86,-269.31"/>
</g>
<!-- system.ruby.gpu_dir_cntrl0 -->
<g id="node35" class="node">
<title>system.ruby.gpu_dir_cntrl0</title>
<path fill="#e5bcd0" stroke="#000000" d="M346.13,-111.29C346.13,-111.29 453.13,-111.29 453.13,-111.29 459.13,-111.29 465.13,-117.29 465.13,-123.29 465.13,-123.29 465.13,-135.29 465.13,-135.29 465.13,-141.29 459.13,-147.29 453.13,-147.29 453.13,-147.29 346.13,-147.29 346.13,-147.29 340.13,-147.29 334.13,-141.29 334.13,-135.29 334.13,-135.29 334.13,-123.29 334.13,-123.29 334.13,-117.29 340.13,-111.29 346.13,-111.29"/>
<text text-anchor="middle" x="399.63" y="-125.59" font-family="Arial" font-size="14.00" fill="#000000">ruby.gpu_dir_cntrl0</text>
</g>
<!-- system.ruby.gpu_dir_cntrl0&#45;&#45;system.ruby.network_gpu.routers16 -->
<g id="edge50" class="edge">
<title>system.ruby.gpu_dir_cntrl0&#45;&#45;system.ruby.network_gpu.routers16</title>
<path fill="none" stroke="#381526" d="M345.86,-151.18C345.77,-151.22 345.69,-151.25 345.6,-151.28"/>
<polygon fill="#381526" stroke="#381526" points="347.26,-154.39 355.2,-147.38 344.62,-147.91 347.26,-154.39"/>
<polygon fill="#381526" stroke="#381526" points="345.85,-147.4 337.91,-154.42 348.49,-153.89 345.85,-147.4"/>
</g>
</g>
</svg>
